<?xml version="1.0" encoding="utf-8" standalone="no"?>
<!DOCTYPE svg PUBLIC "-//W3C//DTD SVG 1.1//EN"
  "http://www.w3.org/Graphics/SVG/1.1/DTD/svg11.dtd">
<svg xmlns:xlink="http://www.w3.org/1999/xlink" width="524.7pt" height="237.6pt" viewBox="0 0 524.7 237.6" xmlns="http://www.w3.org/2000/svg" version="1.1">
 <metadata>
  <rdf:RDF xmlns:dc="http://purl.org/dc/elements/1.1/" xmlns:cc="http://creativecommons.org/ns#" xmlns:rdf="http://www.w3.org/1999/02/22-rdf-syntax-ns#">
   <cc:Work>
    <dc:type rdf:resource="http://purl.org/dc/dcmitype/StillImage"/>
    <dc:date>2026-09-23T07:02:53.058378</dc:date>
    <dc:format>image/svg+xml</dc:format>
    <dc:creator>
     <cc:Agent>
      <dc:title>Matplotlib v3.9.2, https://matplotlib.org/</dc:title>
     </cc:Agent>
    </dc:creator>
   </cc:Work>
  </rdf:RDF>
 </metadata>
 <defs>
  <style type="text/css">*{stroke-linejoin: round; stroke-linecap: butt}</style>
 </defs>
 <g id="figure_1">
  <g id="patch_1">
   <path d="M 0 237.6 
L 524.7 237.6 
L 524.7 -0 
L 0 -0 
z
" style="fill: #ffffff"/>
  </g>
  <g id="axes_1">
   <g id="patch_2">
    <path d="M 12.303 66.396522 
L 147.5325 66.396522 
Q 149.5737 66.396522 149.5737 64.455652 
L 149.5737 22.241739 
Q 149.5737 20.30087 147.5325 20.30087 
L 12.303 20.30087 
Q 10.2618 20.30087 10.2618 22.241739 
L 10.2618 64.455652 
Q 10.2618 66.396522 12.303 66.396522 
z
" clip-path="url(#p0283e1bc77)" style="fill: #e8ecef; stroke: #607080; stroke-width: 0.8; stroke-linejoin: miter"/>
   </g>
   <g id="patch_3">
    <path d="M 169.4754 66.396522 
L 348.0804 66.396522 
Q 350.1216 66.396522 350.1216 64.455652 
L 350.1216 22.241739 
Q 350.1216 20.30087 348.0804 20.30087 
L 169.4754 20.30087 
Q 167.4342 20.30087 167.4342 22.241739 
L 167.4342 64.455652 
Q 167.4342 66.396522 169.4754 66.396522 
z
" clip-path="url(#p0283e1bc77)" style="fill: #e8ecef; stroke: #607080; stroke-width: 0.8; stroke-linejoin: miter"/>
   </g>
   <g id="patch_4">
    <path d="M 371.0439 66.396522 
L 506.2734 66.396522 
Q 508.3146 66.396522 508.3146 64.455652 
L 508.3146 22.241739 
Q 508.3146 20.30087 506.2734 20.30087 
L 371.0439 20.30087 
Q 369.0027 20.30087 369.0027 22.241739 
L 369.0027 64.455652 
Q 369.0027 66.396522 371.0439 66.396522 
z
" clip-path="url(#p0283e1bc77)" style="fill: #e8ecef; stroke: #607080; stroke-width: 0.8; stroke-linejoin: miter"/>
   </g>
   <g id="patch_5">
    <path d="M 78.642 128.504348 
L 89.10315 128.504348 
L 89.10315 112.006957 
L 78.642 112.006957 
z
" clip-path="url(#p0283e1bc77)" style="fill: #ffffff; stroke: #66717a; stroke-width: 0.7; stroke-linejoin: miter"/>
   </g>
   <g id="patch_6">
    <path d="M 90.8892 128.504348 
L 101.35035 128.504348 
L 101.35035 112.006957 
L 90.8892 112.006957 
z
" clip-path="url(#p0283e1bc77)" style="fill: #ffffff; stroke: #66717a; stroke-width: 0.7; stroke-linejoin: miter"/>
   </g>
   <g id="patch_7">
    <path d="M 103.1364 128.504348 
L 113.59755 128.504348 
L 113.59755 112.006957 
L 103.1364 112.006957 
z
" clip-path="url(#p0283e1bc77)" style="fill: #ffffff; stroke: #66717a; stroke-width: 0.7; stroke-linejoin: miter"/>
   </g>
   <g id="patch_8">
    <path d="M 115.3836 128.504348 
L 125.84475 128.504348 
L 125.84475 112.006957 
L 115.3836 112.006957 
z
" clip-path="url(#p0283e1bc77)" style="fill: #ffffff; stroke: #66717a; stroke-width: 0.7; stroke-linejoin: miter"/>
   </g>
   <g id="patch_9">
    <path d="M 127.6308 128.504348 
L 138.09195 128.504348 
L 138.09195 112.006957 
L 127.6308 112.006957 
z
" clip-path="url(#p0283e1bc77)" style="fill: #ffffff; stroke: #66717a; stroke-width: 0.7; stroke-linejoin: miter"/>
   </g>
   <g id="patch_10">
    <path d="M 139.878 128.504348 
L 150.33915 128.504348 
L 150.33915 112.006957 
L 139.878 112.006957 
z
" clip-path="url(#p0283e1bc77)" style="fill: #ffffff; stroke: #66717a; stroke-width: 0.7; stroke-linejoin: miter"/>
   </g>
   <g id="patch_11">
    <path d="M 152.1252 128.504348 
L 162.58635 128.504348 
L 162.58635 112.006957 
L 152.1252 112.006957 
z
" clip-path="url(#p0283e1bc77)" style="fill: #ffffff; stroke: #66717a; stroke-width: 0.7; stroke-linejoin: miter"/>
   </g>
   <g id="patch_12">
    <path d="M 164.3724 128.504348 
L 174.83355 128.504348 
L 174.83355 112.006957 
L 164.3724 112.006957 
z
" clip-path="url(#p0283e1bc77)" style="fill: #ffffff; stroke: #66717a; stroke-width: 0.7; stroke-linejoin: miter"/>
   </g>
   <g id="patch_13">
    <path d="M 211.32 128.504348 
L 221.78115 128.504348 
L 221.78115 112.006957 
L 211.32 112.006957 
z
" clip-path="url(#p0283e1bc77)" style="fill: #36688b; stroke: #66717a; stroke-width: 0.7; stroke-linejoin: miter"/>
   </g>
   <g id="patch_14">
    <path d="M 223.5672 128.504348 
L 234.02835 128.504348 
L 234.02835 112.006957 
L 223.5672 112.006957 
z
" clip-path="url(#p0283e1bc77)" style="fill: #36688b; stroke: #66717a; stroke-width: 0.7; stroke-linejoin: miter"/>
   </g>
   <g id="patch_15">
    <path d="M 235.8144 128.504348 
L 246.27555 128.504348 
L 246.27555 112.006957 
L 235.8144 112.006957 
z
" clip-path="url(#p0283e1bc77)" style="fill: #36688b; stroke: #66717a; stroke-width: 0.7; stroke-linejoin: miter"/>
   </g>
   <g id="patch_16">
    <path d="M 248.0616 128.504348 
L 258.52275 128.504348 
L 258.52275 112.006957 
L 248.0616 112.006957 
z
" clip-path="url(#p0283e1bc77)" style="fill: #36688b; stroke: #66717a; stroke-width: 0.7; stroke-linejoin: miter"/>
   </g>
   <g id="patch_17">
    <path d="M 260.3088 128.504348 
L 270.76995 128.504348 
L 270.76995 112.006957 
L 260.3088 112.006957 
z
" clip-path="url(#p0283e1bc77)" style="fill: #ffffff; stroke: #66717a; stroke-width: 0.7; stroke-linejoin: miter"/>
   </g>
   <g id="patch_18">
    <path d="M 272.556 128.504348 
L 283.01715 128.504348 
L 283.01715 112.006957 
L 272.556 112.006957 
z
" clip-path="url(#p0283e1bc77)" style="fill: #ffffff; stroke: #66717a; stroke-width: 0.7; stroke-linejoin: miter"/>
   </g>
   <g id="patch_19">
    <path d="M 284.8032 128.504348 
L 295.26435 128.504348 
L 295.26435 112.006957 
L 284.8032 112.006957 
z
" clip-path="url(#p0283e1bc77)" style="fill: #ffffff; stroke: #66717a; stroke-width: 0.7; stroke-linejoin: miter"/>
   </g>
   <g id="patch_20">
    <path d="M 297.0504 128.504348 
L 307.51155 128.504348 
L 307.51155 112.006957 
L 297.0504 112.006957 
z
" clip-path="url(#p0283e1bc77)" style="fill: #ffffff; stroke: #66717a; stroke-width: 0.7; stroke-linejoin: miter"/>
   </g>
   <g id="patch_21">
    <path d="M 343.998 128.504348 
L 354.45915 128.504348 
L 354.45915 112.006957 
L 343.998 112.006957 
z
" clip-path="url(#p0283e1bc77)" style="fill: #36688b; stroke: #66717a; stroke-width: 0.7; stroke-linejoin: miter"/>
   </g>
   <g id="patch_22">
    <path d="M 356.2452 128.504348 
L 366.70635 128.504348 
L 366.70635 112.006957 
L 356.2452 112.006957 
z
" clip-path="url(#p0283e1bc77)" style="fill: #36688b; stroke: #66717a; stroke-width: 0.7; stroke-linejoin: miter"/>
   </g>
   <g id="patch_23">
    <path d="M 368.4924 128.504348 
L 378.95355 128.504348 
L 378.95355 112.006957 
L 368.4924 112.006957 
z
" clip-path="url(#p0283e1bc77)" style="fill: #36688b; stroke: #66717a; stroke-width: 0.7; stroke-linejoin: miter"/>
   </g>
   <g id="patch_24">
    <path d="M 380.7396 128.504348 
L 391.20075 128.504348 
L 391.20075 112.006957 
L 380.7396 112.006957 
z
" clip-path="url(#p0283e1bc77)" style="fill: #36688b; stroke: #66717a; stroke-width: 0.7; stroke-linejoin: miter"/>
   </g>
   <g id="patch_25">
    <path d="M 392.9868 128.504348 
L 403.44795 128.504348 
L 403.44795 112.006957 
L 392.9868 112.006957 
z
" clip-path="url(#p0283e1bc77)" style="fill: #b76935; stroke: #66717a; stroke-width: 0.7; stroke-linejoin: miter"/>
   </g>
   <g id="patch_26">
    <path d="M 405.234 128.504348 
L 415.69515 128.504348 
L 415.69515 112.006957 
L 405.234 112.006957 
z
" clip-path="url(#p0283e1bc77)" style="fill: #b76935; stroke: #66717a; stroke-width: 0.7; stroke-linejoin: miter"/>
   </g>
   <g id="patch_27">
    <path d="M 417.4812 128.504348 
L 427.94235 128.504348 
L 427.94235 112.006957 
L 417.4812 112.006957 
z
" clip-path="url(#p0283e1bc77)" style="fill: #b76935; stroke: #66717a; stroke-width: 0.7; stroke-linejoin: miter"/>
   </g>
   <g id="patch_28">
    <path d="M 429.7284 128.504348 
L 440.18955 128.504348 
L 440.18955 112.006957 
L 429.7284 112.006957 
z
" clip-path="url(#p0283e1bc77)" style="fill: #b76935; stroke: #66717a; stroke-width: 0.7; stroke-linejoin: miter"/>
   </g>
   <g id="patch_29">
    <path d="M 78.642 184.304348 
L 89.10315 184.304348 
L 89.10315 167.806957 
L 78.642 167.806957 
z
" clip-path="url(#p0283e1bc77)" style="fill: #ffffff; stroke: #66717a; stroke-width: 0.7; stroke-linejoin: miter"/>
   </g>
   <g id="patch_30">
    <path d="M 90.8892 184.304348 
L 101.35035 184.304348 
L 101.35035 167.806957 
L 90.8892 167.806957 
z
" clip-path="url(#p0283e1bc77)" style="fill: #ffffff; stroke: #66717a; stroke-width: 0.7; stroke-linejoin: miter"/>
   </g>
   <g id="patch_31">
    <path d="M 103.1364 184.304348 
L 113.59755 184.304348 
L 113.59755 167.806957 
L 103.1364 167.806957 
z
" clip-path="url(#p0283e1bc77)" style="fill: #ffffff; stroke: #66717a; stroke-width: 0.7; stroke-linejoin: miter"/>
   </g>
   <g id="patch_32">
    <path d="M 115.3836 184.304348 
L 125.84475 184.304348 
L 125.84475 167.806957 
L 115.3836 167.806957 
z
" clip-path="url(#p0283e1bc77)" style="fill: #ffffff; stroke: #66717a; stroke-width: 0.7; stroke-linejoin: miter"/>
   </g>
   <g id="patch_33">
    <path d="M 127.6308 184.304348 
L 138.09195 184.304348 
L 138.09195 167.806957 
L 127.6308 167.806957 
z
" clip-path="url(#p0283e1bc77)" style="fill: #ffffff; stroke: #66717a; stroke-width: 0.7; stroke-linejoin: miter"/>
   </g>
   <g id="patch_34">
    <path d="M 139.878 184.304348 
L 150.33915 184.304348 
L 150.33915 167.806957 
L 139.878 167.806957 
z
" clip-path="url(#p0283e1bc77)" style="fill: #ffffff; stroke: #66717a; stroke-width: 0.7; stroke-linejoin: miter"/>
   </g>
   <g id="patch_35">
    <path d="M 152.1252 184.304348 
L 162.58635 184.304348 
L 162.58635 167.806957 
L 152.1252 167.806957 
z
" clip-path="url(#p0283e1bc77)" style="fill: #ffffff; stroke: #66717a; stroke-width: 0.7; stroke-linejoin: miter"/>
   </g>
   <g id="patch_36">
    <path d="M 164.3724 184.304348 
L 174.83355 184.304348 
L 174.83355 167.806957 
L 164.3724 167.806957 
z
" clip-path="url(#p0283e1bc77)" style="fill: #ffffff; stroke: #66717a; stroke-width: 0.7; stroke-linejoin: miter"/>
   </g>
   <g id="patch_37">
    <path d="M 211.32 184.304348 
L 221.78115 184.304348 
L 221.78115 167.806957 
L 211.32 167.806957 
z
" clip-path="url(#p0283e1bc77)" style="fill: #ffffff; stroke: #66717a; stroke-width: 0.7; stroke-linejoin: miter"/>
   </g>
   <g id="patch_38">
    <path d="M 223.5672 184.304348 
L 234.02835 184.304348 
L 234.02835 167.806957 
L 223.5672 167.806957 
z
" clip-path="url(#p0283e1bc77)" style="fill: #ffffff; stroke: #66717a; stroke-width: 0.7; stroke-linejoin: miter"/>
   </g>
   <g id="patch_39">
    <path d="M 235.8144 184.304348 
L 246.27555 184.304348 
L 246.27555 167.806957 
L 235.8144 167.806957 
z
" clip-path="url(#p0283e1bc77)" style="fill: #ffffff; stroke: #66717a; stroke-width: 0.7; stroke-linejoin: miter"/>
   </g>
   <g id="patch_40">
    <path d="M 248.0616 184.304348 
L 258.52275 184.304348 
L 258.52275 167.806957 
L 248.0616 167.806957 
z
" clip-path="url(#p0283e1bc77)" style="fill: #ffffff; stroke: #66717a; stroke-width: 0.7; stroke-linejoin: miter"/>
   </g>
   <g id="patch_41">
    <path d="M 260.3088 184.304348 
L 270.76995 184.304348 
L 270.76995 167.806957 
L 260.3088 167.806957 
z
" clip-path="url(#p0283e1bc77)" style="fill: #b76935; stroke: #66717a; stroke-width: 0.7; stroke-linejoin: miter"/>
   </g>
   <g id="patch_42">
    <path d="M 272.556 184.304348 
L 283.01715 184.304348 
L 283.01715 167.806957 
L 272.556 167.806957 
z
" clip-path="url(#p0283e1bc77)" style="fill: #b76935; stroke: #66717a; stroke-width: 0.7; stroke-linejoin: miter"/>
   </g>
   <g id="patch_43">
    <path d="M 284.8032 184.304348 
L 295.26435 184.304348 
L 295.26435 167.806957 
L 284.8032 167.806957 
z
" clip-path="url(#p0283e1bc77)" style="fill: #b76935; stroke: #66717a; stroke-width: 0.7; stroke-linejoin: miter"/>
   </g>
   <g id="patch_44">
    <path d="M 297.0504 184.304348 
L 307.51155 184.304348 
L 307.51155 167.806957 
L 297.0504 167.806957 
z
" clip-path="url(#p0283e1bc77)" style="fill: #b76935; stroke: #66717a; stroke-width: 0.7; stroke-linejoin: miter"/>
   </g>
   <g id="patch_45">
    <path d="M 343.998 184.304348 
L 354.45915 184.304348 
L 354.45915 167.806957 
L 343.998 167.806957 
z
" clip-path="url(#p0283e1bc77)" style="fill: #36688b; stroke: #66717a; stroke-width: 0.7; stroke-linejoin: miter"/>
   </g>
   <g id="patch_46">
    <path d="M 356.2452 184.304348 
L 366.70635 184.304348 
L 366.70635 167.806957 
L 356.2452 167.806957 
z
" clip-path="url(#p0283e1bc77)" style="fill: #36688b; stroke: #66717a; stroke-width: 0.7; stroke-linejoin: miter"/>
   </g>
   <g id="patch_47">
    <path d="M 368.4924 184.304348 
L 378.95355 184.304348 
L 378.95355 167.806957 
L 368.4924 167.806957 
z
" clip-path="url(#p0283e1bc77)" style="fill: #36688b; stroke: #66717a; stroke-width: 0.7; stroke-linejoin: miter"/>
   </g>
   <g id="patch_48">
    <path d="M 380.7396 184.304348 
L 391.20075 184.304348 
L 391.20075 167.806957 
L 380.7396 167.806957 
z
" clip-path="url(#p0283e1bc77)" style="fill: #36688b; stroke: #66717a; stroke-width: 0.7; stroke-linejoin: miter"/>
   </g>
   <g id="patch_49">
    <path d="M 392.9868 184.304348 
L 403.44795 184.304348 
L 403.44795 167.806957 
L 392.9868 167.806957 
z
" clip-path="url(#p0283e1bc77)" style="fill: #b76935; stroke: #66717a; stroke-width: 0.7; stroke-linejoin: miter"/>
   </g>
   <g id="patch_50">
    <path d="M 405.234 184.304348 
L 415.69515 184.304348 
L 415.69515 167.806957 
L 405.234 167.806957 
z
" clip-path="url(#p0283e1bc77)" style="fill: #b76935; stroke: #66717a; stroke-width: 0.7; stroke-linejoin: miter"/>
   </g>
   <g id="patch_51">
    <path d="M 417.4812 184.304348 
L 427.94235 184.304348 
L 427.94235 167.806957 
L 417.4812 167.806957 
z
" clip-path="url(#p0283e1bc77)" style="fill: #b76935; stroke: #66717a; stroke-width: 0.7; stroke-linejoin: miter"/>
   </g>
   <g id="patch_52">
    <path d="M 429.7284 184.304348 
L 440.18955 184.304348 
L 440.18955 167.806957 
L 429.7284 167.806957 
z
" clip-path="url(#p0283e1bc77)" style="fill: #b76935; stroke: #66717a; stroke-width: 0.7; stroke-linejoin: miter"/>
   </g>
   <g id="text_1">
    <text style="font: 9px 'DejaVu Sans'" transform="translate(33.635953 40.793118)">Full retained context</text>
    <text style="font: 9px 'DejaVu Sans'" transform="translate(23.245172 50.871149)">+ labeled answer canvas</text>
   </g>
   <g id="text_2">
    <text style="font: 9px 'DejaVu Sans'" transform="translate(180.263447 40.793118)">Tied RWKV forward / reverse scans</text>
    <text style="font: 9px 'DejaVu Sans'" transform="translate(186.356025 50.871149)">learned directional fusion + FFN</text>
   </g>
   <g id="text_3">
    <text style="font: 9px 'DejaVu Sans'" transform="translate(400.545056 40.793118)">Binary marginals</text>
    <text style="font: 9px 'DejaVu Sans'" transform="translate(394.855369 50.871149)">at answer positions</text>
   </g>
   <g id="patch_53">
    <path d="M 152.081346 43.591304 
Q 158.248484 43.591304 163.073981 43.591304 
" style="fill: none; stroke: #394956; stroke-width: 1.2; stroke-linecap: round"/>
    <path d="M 159.473981 41.791304 
L 163.073981 43.591304 
L 159.473981 45.391304 
" style="fill: none; stroke: #394956; stroke-width: 1.2; stroke-linecap: round"/>
   </g>
   <g id="patch_54">
    <path d="M 352.635475 43.591304 
Q 359.310283 43.591304 364.64345 43.591304 
" style="fill: none; stroke: #394956; stroke-width: 1.2; stroke-linecap: round"/>
    <path d="M 361.04345 41.791304 
L 364.64345 43.591304 
L 361.04345 45.391304 
" style="fill: none; stroke: #394956; stroke-width: 1.2; stroke-linecap: round"/>
   </g>
   <g id="text_4">
    <text style="font: 8.5px 'DejaVu Sans'; text-anchor: middle" x="262.35" y="83.37913" transform="rotate(-0 262.35 83.37913)">Each call rebuilds recurrent states and reads the full context.</text>
   </g>
   <g id="text_5">
    <text style="fill: #36688b; font: 700 9px 'DejaVu Sans'; text-anchor: start" x="12.303" y="122.73909" transform="rotate(-0 12.303 122.73909)">A first</text>
   </g>
   <g id="text_6">
    <text style="font: 8px 'DejaVu Sans'; text-anchor: middle" x="83.89809" y="122.463152" transform="rotate(-0 83.89809 122.463152)">?</text>
   </g>
   <g id="text_7">
    <text style="font: 8px 'DejaVu Sans'; text-anchor: middle" x="96.14529" y="122.463152" transform="rotate(-0 96.14529 122.463152)">?</text>
   </g>
   <g id="text_8">
    <text style="font: 8px 'DejaVu Sans'; text-anchor: middle" x="108.39249" y="122.463152" transform="rotate(-0 108.39249 122.463152)">?</text>
   </g>
   <g id="text_9">
    <text style="font: 8px 'DejaVu Sans'; text-anchor: middle" x="120.63969" y="122.463152" transform="rotate(-0 120.63969 122.463152)">?</text>
   </g>
   <g id="text_10">
    <text style="font: 8px 'DejaVu Sans'; text-anchor: middle" x="132.88689" y="122.463152" transform="rotate(-0 132.88689 122.463152)">?</text>
   </g>
   <g id="text_11">
    <text style="font: 8px 'DejaVu Sans'; text-anchor: middle" x="145.13409" y="122.463152" transform="rotate(-0 145.13409 122.463152)">?</text>
   </g>
   <g id="text_12">
    <text style="font: 8px 'DejaVu Sans'; text-anchor: middle" x="157.38129" y="122.463152" transform="rotate(-0 157.38129 122.463152)">?</text>
   </g>
   <g id="text_13">
    <text style="font: 8px 'DejaVu Sans'; text-anchor: middle" x="169.62849" y="122.463152" transform="rotate(-0 169.62849 122.463152)">?</text>
   </g>
   <g id="text_14">
    <text style="font: 8px 'DejaVu Sans'; text-anchor: middle" x="127.1205" y="145.25788" transform="rotate(-0 127.1205 145.25788)">all masked</text>
   </g>
   <g id="text_15">
    <text style="font: 8px 'DejaVu Sans'; text-anchor: middle" x="265.56489" y="122.463152" transform="rotate(-0 265.56489 122.463152)">?</text>
   </g>
   <g id="text_16">
    <text style="font: 8px 'DejaVu Sans'; text-anchor: middle" x="277.81209" y="122.463152" transform="rotate(-0 277.81209 122.463152)">?</text>
   </g>
   <g id="text_17">
    <text style="font: 8px 'DejaVu Sans'; text-anchor: middle" x="290.05929" y="122.463152" transform="rotate(-0 290.05929 122.463152)">?</text>
   </g>
   <g id="text_18">
    <text style="font: 8px 'DejaVu Sans'; text-anchor: middle" x="302.30649" y="122.463152" transform="rotate(-0 302.30649 122.463152)">?</text>
   </g>
   <g id="text_19">
    <text style="font: 8px 'DejaVu Sans'; text-anchor: middle" x="259.7985" y="145.25788" transform="rotate(-0 259.7985 145.25788)">sample first basis</text>
   </g>
   <g id="text_20">
    <text style="font: 8px 'DejaVu Sans'; text-anchor: middle" x="392.4765" y="145.25788" transform="rotate(-0 392.4765 145.25788)">sample remaining basis</text>
   </g>
   <g id="patch_55">
    <path d="M 181.168508 120.255652 
Q 193.202233 120.255652 203.894316 120.255652 
" style="fill: none; stroke: #394956; stroke-width: 1.2; stroke-linecap: round"/>
    <path d="M 200.294316 118.455652 
L 203.894316 120.255652 
L 200.294316 122.055652 
" style="fill: none; stroke: #394956; stroke-width: 1.2; stroke-linecap: round"/>
   </g>
   <g id="patch_56">
    <path d="M 313.846508 120.255652 
Q 325.880233 120.255652 336.572316 120.255652 
" style="fill: none; stroke: #394956; stroke-width: 1.2; stroke-linecap: round"/>
    <path d="M 332.972316 118.455652 
L 336.572316 120.255652 
L 332.972316 122.055652 
" style="fill: none; stroke: #394956; stroke-width: 1.2; stroke-linecap: round"/>
   </g>
   <g id="text_21">
    <text style="font: 8px 'DejaVu Sans'; text-anchor: middle" x="192.9492" y="105.213913" transform="rotate(-0 192.9492 105.213913)">call 1</text>
   </g>
   <g id="text_22">
    <text style="font: 8px 'DejaVu Sans'; text-anchor: middle" x="325.6272" y="105.213913" transform="rotate(-0 325.6272 105.213913)">call 2</text>
   </g>
   <g id="text_23">
    <!-- $D=0$ -->
    <g transform="translate(446.9355 118.185291)">
     <text>
      <tspan style="font: oblique 9px 'DejaVu Sans'" x="0" y="-0.3125">D</tspan>
      <tspan style="font: 9px 'DejaVu Sans'" x="8.683594 17.978027" y="-0.3125">=0</tspan>
     </text>
    </g>
    <text style="font: 9px 'DejaVu Sans'" transform="translate(444.445734 128.263323)">2 calls</text>
   </g>
   <g id="text_24">
    <text style="fill: #b76935; font: 700 9px 'DejaVu Sans'; text-anchor: start" x="12.303" y="178.53909" transform="rotate(-0 12.303 178.53909)">B first</text>
   </g>
   <g id="text_25">
    <text style="font: 8px 'DejaVu Sans'; text-anchor: middle" x="83.89809" y="178.263152" transform="rotate(-0 83.89809 178.263152)">?</text>
   </g>
   <g id="text_26">
    <text style="font: 8px 'DejaVu Sans'; text-anchor: middle" x="96.14529" y="178.263152" transform="rotate(-0 96.14529 178.263152)">?</text>
   </g>
   <g id="text_27">
    <text style="font: 8px 'DejaVu Sans'; text-anchor: middle" x="108.39249" y="178.263152" transform="rotate(-0 108.39249 178.263152)">?</text>
   </g>
   <g id="text_28">
    <text style="font: 8px 'DejaVu Sans'; text-anchor: middle" x="120.63969" y="178.263152" transform="rotate(-0 120.63969 178.263152)">?</text>
   </g>
   <g id="text_29">
    <text style="font: 8px 'DejaVu Sans'; text-anchor: middle" x="132.88689" y="178.263152" transform="rotate(-0 132.88689 178.263152)">?</text>
   </g>
   <g id="text_30">
    <text style="font: 8px 'DejaVu Sans'; text-anchor: middle" x="145.13409" y="178.263152" transform="rotate(-0 145.13409 178.263152)">?</text>
   </g>
   <g id="text_31">
    <text style="font: 8px 'DejaVu Sans'; text-anchor: middle" x="157.38129" y="178.263152" transform="rotate(-0 157.38129 178.263152)">?</text>
   </g>
   <g id="text_32">
    <text style="font: 8px 'DejaVu Sans'; text-anchor: middle" x="169.62849" y="178.263152" transform="rotate(-0 169.62849 178.263152)">?</text>
   </g>
   <g id="text_33">
    <text style="font: 8px 'DejaVu Sans'; text-anchor: middle" x="127.1205" y="201.05788" transform="rotate(-0 127.1205 201.05788)">all masked</text>
   </g>
   <g id="text_34">
    <text style="font: 8px 'DejaVu Sans'; text-anchor: middle" x="216.57609" y="178.263152" transform="rotate(-0 216.57609 178.263152)">?</text>
   </g>
   <g id="text_35">
    <text style="font: 8px 'DejaVu Sans'; text-anchor: middle" x="228.82329" y="178.263152" transform="rotate(-0 228.82329 178.263152)">?</text>
   </g>
   <g id="text_36">
    <text style="font: 8px 'DejaVu Sans'; text-anchor: middle" x="241.07049" y="178.263152" transform="rotate(-0 241.07049 178.263152)">?</text>
   </g>
   <g id="text_37">
    <text style="font: 8px 'DejaVu Sans'; text-anchor: middle" x="253.31769" y="178.263152" transform="rotate(-0 253.31769 178.263152)">?</text>
   </g>
   <g id="text_38">
    <text style="font: 8px 'DejaVu Sans'; text-anchor: middle" x="259.7985" y="201.05788" transform="rotate(-0 259.7985 201.05788)">sample first basis</text>
   </g>
   <g id="text_39">
    <text style="font: 8px 'DejaVu Sans'; text-anchor: middle" x="392.4765" y="201.05788" transform="rotate(-0 392.4765 201.05788)">sample remaining basis</text>
   </g>
   <g id="patch_57">
    <path d="M 181.168508 176.055652 
Q 193.202233 176.055652 203.894316 176.055652 
" style="fill: none; stroke: #394956; stroke-width: 1.2; stroke-linecap: round"/>
    <path d="M 200.294316 174.255652 
L 203.894316 176.055652 
L 200.294316 177.855652 
" style="fill: none; stroke: #394956; stroke-width: 1.2; stroke-linecap: round"/>
   </g>
   <g id="patch_58">
    <path d="M 313.846508 176.055652 
Q 325.880233 176.055652 336.572316 176.055652 
" style="fill: none; stroke: #394956; stroke-width: 1.2; stroke-linecap: round"/>
    <path d="M 332.972316 174.255652 
L 336.572316 176.055652 
L 332.972316 177.855652 
" style="fill: none; stroke: #394956; stroke-width: 1.2; stroke-linecap: round"/>
   </g>
   <g id="text_40">
    <text style="font: 8px 'DejaVu Sans'; text-anchor: middle" x="192.9492" y="161.013913" transform="rotate(-0 192.9492 161.013913)">call 1</text>
   </g>
   <g id="text_41">
    <text style="font: 8px 'DejaVu Sans'; text-anchor: middle" x="325.6272" y="161.013913" transform="rotate(-0 325.6272 161.013913)">call 2</text>
   </g>
   <g id="text_42">
    <!-- $D=0$ -->
    <g transform="translate(446.9355 173.985291)">
     <text>
      <tspan style="font: oblique 9px 'DejaVu Sans'" x="0" y="-0.3125">D</tspan>
      <tspan style="font: 9px 'DejaVu Sans'" x="8.683594 17.978027" y="-0.3125">=0</tspan>
     </text>
    </g>
    <text style="font: 9px 'DejaVu Sans'" transform="translate(444.445734 184.063323)">2 calls</text>
   </g>
   <g id="text_43">
    <text style="font: 8.5px 'DejaVu Sans'; text-anchor: middle" x="262.35" y="223.121739" transform="rotate(-0 262.35 223.121739)">Public invertible bases: equal discarded dependence and scan count; learned errors may differ.</text>
   </g>
  </g>
 </g>
 <defs>
  <clipPath id="p0283e1bc77">
   <rect x="7.2" y="7.2" width="510.3" height="223.2"/>
  </clipPath>
 </defs>
</svg>
